<svg xmlns="http://www.w3.org/2000/svg" viewBox="0 0 500 500"><path d="M236 344.7c-.2.5-.4.9 0 0zm191.6-67c-15.5 0-30.7 3.6-44.6 10.4-4.5-9.2-9.2-17.2-10-23.2-.9-7-1.9-11.2-.8-19.5s5.9-20.1 5.8-21c-.1-.8-1.1-5.1-11-5.2-9.9-.1-18.4 1.9-19.4 4.5-1.8 4.8-3.1 9.7-4.1 14.7-1.8 9-19.8 41.2-30.1 58-3.4-6.6-6.2-12.3-6.8-17-.9-7-1.9-11.2-.8-19.5 1.1-8.3 5.9-20.1 5.8-21-.1-.8-1.1-5.1-11-5.2-9.9-.1-18.5 1.9-19.4 4.5-1 2.6-2.1 8.8-4.1 14.7s-26.1 59.6-32.3 73.5c-3.2 7.1-6 12.8-8 16.6-.3.6-.5 1-.7 1.3.2-.4.4-.8.4-.6-1.7 3.3-2.7 5.2-2.7 5.2v.1c-1.3 2.5-2.8 4.7-3.5 4.7-.5 0-1.5-6.5.2-15.3 3.6-18.7 12.1-47.6 12.1-48.6-.1-.5 1.6-5.5-5.6-8.2-7-2.5-9.5 1.7-10.1 1.7s-1.1 1.5-1.1 1.5 7.8-32.7-14.9-32.7c-14.1 0-33.8 15.6-43.5 29.7-6.1 3.3-19.2 10.5-33.1 18.1-5.3 2.9-10.8 5.9-15.9 8.8-.4-.4-.7-.8-1.1-1.2C89.8 278.4 39 257.6 41.1 218c.8-14.4 5.8-52.3 97.7-98.2 75.3-37.6 135.6-27.3 145.9-4.3 14.9 32.8-32.2 93.7-110.4 102.5-29.8 3.3-45.5-8.2-49.4-12.6-4.1-4.5-4.7-4.8-6.2-3.9-2.5 1.4-.9 5.4 0 7.8 2.3 6.1 11.9 16.9 28.3 22.3 14.4 4.7 49.3 7.3 91.6-9.1C286 204.1 323 153 312.2 110.3c-11-43.5-82.9-57.7-150.9-33.5-40.5 14.3-84.3 37-115.9 66.5C8 178.5 2 209.1 4.5 221.9c8.8 45.4 71.2 75 96.1 96.9-1.2.7-2.4 1.3-3.5 1.9-12.5 6.2-60.1 31.2-72 57.6-13.5 29.9 2.2 51.3 12.5 54.3 32.1 8.9 65-7.2 82.7-33.6s15.5-61 7.4-76.7l-.3-.6c3.2-1.9 6.5-3.9 9.8-5.8 6.4-3.8 12.6-7.2 18.1-10.3-3.1 8.3-5.3 18.3-6.5 32.8-1.4 17 5.6 38.9 14.7 47.6 4 3.8 8.8 3.9 11.8 3.9 10.6 0 15.4-8.8 20.7-19.3 6.5-12.8 12.3-27.7 12.3-27.7s-7.2 40.2 12.5 40.2c7.2 0 14.4-9.3 17.7-14.1v.1s.2-.3.5-.9c.8-1.2 1.2-1.9 1.2-1.9v-.2c2.9-5 9.3-16.5 18.9-35.5 12.5-24.5 24.4-55.1 24.4-55.1 1.2 6.7 2.7 13.4 4.8 19.9 2.2 7.3 6.7 15.3 10.3 23.1-2.9 4-4.7 6.3-4.7 6.3 0 .1 0 .1.1.2-2.3 3.1-4.9 6.4-7.6 9.6-9.8 11.7-21.5 25.1-23.1 29-1.8 4.5-1.4 7.9 2.2 10.6 2.6 2 7.2 2.3 12.1 1.9 8.8-.6 15.1-2.8 18.1-4.2 5.5-2 10.8-4.7 15.5-8.2 9.6-7.1 15.5-17.3 14.9-30.7-.3-7.4-2.7-14.8-5.6-21.7.8-1.2 1.8-2.5 2.6-3.9 15.2-22.3 27-46.7 27-46.7 1.1 6.7 2.7 13.4 4.8 19.9 1.8 6.2 5.4 13.1 8.8 19.8-14.3 11.6-23.1 25.1-26.2 34-5.7 16.4-1.2 23.8 7.1 25.5 3.8.8 9.1-1 13.1-2.7 5.9-2 11.5-4.9 16.6-8.6 9.6-7.1 18.9-17 18.3-30.5-.2-6.1-1.9-12.2-4.2-18 12.1-5.1 27.7-7.9 47.7-5.5 42.8 5 51.2 31.8 49.6 43s-10.6 17.4-13.6 19.3c-3 1.8-3.9 2.5-3.7 3.9.4 2 1.8 1.9 4.3 1.5 3.5-.6 22.4-9.1 23.3-29.8 1.2-26.3-23.9-55.1-68.4-54.8zm-330 111.5c-14.1 15.5-34 21.4-42.5 16.4-9.1-5.3-5.5-28.1 11.9-44.6 10.6-10 24.3-19.3 33.4-25 2.1-1.2 5.1-3.1 8.8-5.3.6-.4.9-.5.9-.5.7-.5 1.5-.8 2.2-1.3 6.4 23.4.2 44-14.7 60.3zm103.3-70.4c-4.9 12.1-15.3 42.9-21.6 41.3-5.4-1.4-8.7-24.9-1.1-48 3.8-11.6 12-25.5 16.8-30.9 7.8-8.7 16.3-11.5 18.3-8 2.8 4.5-9.3 38-12.4 45.6zm85.3 40.8c-2.1 1.1-4 1.8-4.9 1.2-.7-.4.8-1.9.8-1.9s10.7-11.5 14.9-16.7c2.5-3.1 5.3-6.7 8.4-10.7 0 .4.1.8.1 1.2-.1 13.9-13.3 23.2-19.3 26.9zm65.8-15c-1.5-1.1-1.3-4.7 3.8-16 2-4.4 6.6-11.8 14.6-18.9.9 2.7 1.4 5.5 1.5 8.3 0 17.4-12.4 23.9-19.9 26.6z" fill="#c82424"/></svg>