<?xml version="1.0" standalone="no"?>
<!DOCTYPE svg PUBLIC "-//W3C//DTD SVG 20010904//EN"
 "http://www.w3.org/TR/2001/REC-SVG-20010904/DTD/svg10.dtd">
<svg version="1.0" xmlns="http://www.w3.org/2000/svg"
 width="1024.000000pt" height="1024.000000pt" viewBox="0 0 1024.000000 1024.000000"
 preserveAspectRatio="xMidYMid meet">

<g transform="translate(0.000000,1024.000000) scale(0.100000,-0.100000)"
fill="#c82424" stroke="none">
<path d="M4510 10066 c-486 -87 -946 -488 -1308 -1141 -197 -355 -358 -791
-417 -1129 -8 -49 -16 -91 -18 -92 -2 -2 -192 -62 -422 -133 -432 -133 -667
-211 -715 -236 -44 -23 -87 -79 -99 -131 -6 -27 -133 -980 -281 -2119 -147
-1138 -321 -2474 -386 -2968 -64 -493 -114 -900 -111 -903 4 -5 6016 -1053
6045 -1054 1 0 1 1972 0 4382 l-3 4383 -45 -4 c-36 -2 -176 -40 -321 -86 -13
-4 -23 14 -48 87 -43 123 -136 314 -203 413 -120 179 -308 339 -476 404 -100
38 -235 63 -327 59 l-71 -2 -59 59 c-101 101 -206 161 -351 201 -80 22 -287
27 -384 10z m272 -327 c57 -12 148 -47 148 -58 0 -3 -19 -17 -43 -30 -129 -74
-315 -239 -423 -377 -218 -279 -397 -661 -499 -1065 -19 -79 -37 -144 -39
-146 -5 -6 -828 -254 -831 -251 -7 7 69 260 116 385 274 737 728 1319 1163
1493 141 57 287 74 408 49z m833 -328 c197 -93 347 -289 469 -614 18 -49 22
-69 13 -72 -7 -3 -111 -34 -231 -70 -121 -37 -223 -68 -227 -70 -4 -3 -10 53
-14 123 -14 272 -66 558 -132 729 -5 14 -1 15 28 9 19 -3 61 -19 94 -35z
m-391 -187 c52 -186 92 -503 84 -669 l-3 -70 -495 -152 c-272 -84 -500 -152
-507 -150 -22 4 91 320 176 492 172 350 361 577 598 715 l68 41 27 -60 c15
-32 38 -99 52 -147z m-339 -2244 c169 -11 282 -29 403 -66 82 -25 84 -26 77
-52 -3 -15 -71 -273 -151 -574 -79 -302 -144 -550 -144 -553 0 -3 -8 -2 -17 4
-36 18 -211 72 -308 93 -87 19 -129 22 -320 22 -248 0 -314 -12 -452 -79 -166
-82 -266 -251 -249 -424 15 -163 102 -255 481 -506 391 -258 520 -360 651
-516 227 -270 319 -516 331 -884 17 -564 -179 -1025 -559 -1311 -289 -217
-658 -305 -1103 -264 -426 40 -822 207 -1132 477 l-32 28 102 432 c57 238 105
435 109 438 3 3 53 -25 110 -63 187 -123 404 -224 588 -273 122 -33 320 -33
402 0 163 64 262 245 237 430 -28 197 -143 336 -469 570 -229 165 -298 221
-402 329 -128 133 -209 262 -266 424 -161 454 -70 1059 223 1498 164 245 393
442 680 584 279 139 576 215 920 235 72 5 132 9 135 9 3 1 73 -3 155 -8z"/>
<path d="M6980 4506 c0 -3454 3 -4326 13 -4326 6 1 570 139 1252 309 948 235
1241 312 1243 323 6 29 -1080 7342 -1095 7374 -8 17 -24 36 -37 42 -14 6 -176
13 -403 17 l-380 8 -296 289 -297 290 0 -4326z"/>
</g>
</svg>
